<?xml version="1.0" encoding="UTF-8"?>
<svg id="_图层_1" data-name="图层 1" xmlns="http://www.w3.org/2000/svg" viewBox="0 0 643.61 318.8">
  <defs>
    <style>
      .cls-1 {
        fill: #83b735;
      }
    </style>
  </defs>
  <path class="cls-1" d="m128.8,207.07c-54.7,0-99.04-44.34-99.04-99.04S74.11,8.99,128.8,8.99c20.28,0,39.14,6.11,54.84,16.57C165.11,10.19,141.31.95,115.34.95,56.21.95,8.26,48.89,8.26,108.03s47.94,107.08,107.08,107.08c25.96,0,49.76-9.24,68.3-24.61-15.7,10.46-34.56,16.57-54.84,16.57Z"/>
  <path d="m144.55,164.94c-28.45,33.88-109.31,77.25-129.77,61.59s13.32-51.05,18.12-55.21c-3.2,5.43-9.27,20.14.96,30.05,12.85,12.45,77.13-17.56,110.7-36.43Z"/>
  <g>
    <path d="m104.99,105.04c8.4,3.94,16.53,8.24,24.37,12.8l-5.23,4.92c-7.99-4.8-15.01-8.61-20.93-11.57-5.23,3.44-10.88,6.77-16.8,9.72h32.78v6.28h-13.77v7.26h20.38v6.52h-20.38v15.63c2.48-.25,4.82-.37,7.02-.61,1.65-3.94,3.03-8,3.86-12.06l7.57.74c-.96,3.81-2.2,7.38-3.86,10.58,2.48-.25,4.96-.61,7.3-.86v6.52c-15.84,2.09-33.88,3.81-54.12,5.17l-.96-7.01,11.15-.74c-1.93-4.31-3.86-8.12-5.92-11.44l7.02-1.97c2.2,4.06,4.27,8.37,5.92,12.92l6.34-.49v-16.36h-20.66v-6.52h20.66v-7.26h-13.36v-4.8c-3.03,1.35-5.92,2.71-8.95,4.06l-4.27-5.29c11.29-4.67,21.48-9.97,30.85-16.12h3.99Zm-28.64-26.21l-4.96-6.77c24.79-4.68,43.79-10.83,57.29-18.21h6.61c11.15,6.89,30.3,12.92,57.29,18.21l-4.96,6.77c-8.68-1.85-16.53-3.69-23.41-5.66v3.69h-27.4v6.52h39.8v6.4h-11.29l-3.58,7.87h24.1v6.64h-107.83v-6.64h23.82l-3.44-7.87h-12.67v-6.4h41.45v-6.52h-27.96v-3.57c-7.16,2.09-14.87,3.94-22.86,5.54Zm55.64-18.95c-7.44,4.06-15.56,7.63-24.65,10.83h49.02c-9.92-3.32-18.04-6.89-24.37-10.83Zm-4.82,37.77v-7.87h-19.83l3.44,7.87h16.39Zm36.36,7.26c9.09,6.52,19.42,12.3,30.85,17.47l-4.41,6.28c-3.03-1.6-5.78-3.08-8.4-4.55v3.69h-15.15v7.63h20.93v6.52h-20.93v14.89h7.44c2.07-3.94,3.58-7.87,4.54-12.06l7.71.98c-1.1,3.94-2.75,7.63-4.82,11.07h10.74v6.89h-60.32v-6.89h11.71c-1.93-3.57-3.86-6.77-5.92-9.72l7.16-2.09c2.34,3.69,4.41,7.63,6.2,11.81h6.75v-14.89h-21.9v-6.52h21.9v-7.63h-15.01v-3.44c-3.58,1.97-7.16,4.06-10.88,6.15l-4.55-6.15c11.98-5.66,22.86-12.06,32.5-19.44h3.86Zm-10.88-7.26l3.58-7.87h-19.42v7.87h15.84Zm24.65,23.99c-6.06-3.57-11.29-7.01-15.7-10.46-4.41,3.44-9.36,7.01-14.74,10.46h30.43Z"/>
    <path class="cls-1" d="m330.02,62.72v8.49h-70.92v5.41c-.14,7.5-.55,14.52-1.38,21.04h59.35c-.27,32.48-1.79,52.04-4.82,58.44-3.31,6.4-8.81,9.6-16.53,9.6-5.51,0-12.26-.25-19.97-.49l-2.48-8.49c8.13.25,14.74.49,19.97.61,5.78-.25,9.5-3.08,11.15-8.61,1.38-5.41,2.34-19.81,2.62-42.94h-50.4c-1.93,11.32-4.82,21.16-8.95,29.41-7.16,13.66-18.87,24.24-34.84,31.74l-5.51-7.75c15.7-7.63,26.58-17.96,32.77-30.76,5.78-13.29,8.81-30.51,9.23-51.8v-5.41h-39.94v-8.49h120.64Z"/>
    <path class="cls-1" d="m370.11,104.8l-6.47,5.78c-4.68-5.54-11.02-11.44-19.14-17.72l6.75-5.66c7.44,5.91,13.77,11.69,18.87,17.59Zm1.65,18.46c-5.23,15.01-11.15,29.16-17.49,42.45l-9.09-3.44c6.89-13.66,12.94-27.68,18.18-41.96l8.4,2.95Zm1.1-49.95l-6.47,5.91c-4.68-5.17-11.29-10.7-19.69-16.49l6.75-5.78c7.71,5.41,14.18,10.95,19.42,16.36Zm32.78,3.2v39c-.28,14.03-2.75,25.22-7.44,33.59-4.54,7.63-11.98,13.78-22.17,18.21l-5.23-7.38c9.92-4.18,16.8-9.72,20.66-16.61,3.58-7.14,5.65-16.36,5.92-27.81v-39h8.26Zm18.87,58.94h-8.81v-67.42h-28.51v68.16h-8.81V60.38h46.13v75.05Zm6.33,25.84l-6.61,5.91c-4.96-6.52-11.71-13.41-20.52-20.79l6.06-5.17c8.4,6.64,15.42,13.41,21.07,20.06Zm13.22-96.09v76.78h-8.67v-76.78h8.67Zm-4.96,101.01l-2.07-8.24c4.82.37,9.5.61,13.91.61,3.17,0,4.82-1.72,4.82-4.92V55.09h9.36v100.64c0,6.89-3.72,10.46-10.88,10.46h-15.15Z"/>
  </g>
  <g>
    <path d="m195.85,175.67l7.24,11.52,7.28-11.52h3.79l-9.23,14.21,9.94,15.38h-3.79l-7.99-12.68-7.95,12.68h-3.79l9.86-15.38-9.15-14.21h3.79Z"/>
    <path d="m218.69,175.67l5.89,24.82h.15l6.11-24.82h3.34l6.08,24.82h.15l5.89-24.82h3.45l-7.69,29.59h-3.41l-6.08-24.66h-.11l-6.11,24.66h-3.41l-7.69-29.59h3.45Z"/>
    <path d="m272.53,175.67v2.94h-9.45v26.65h-3.04v-26.65h-9.45v-2.94h21.94Z"/>
    <path d="m294.85,175.67v2.94h-15.9v9.9h15v2.94h-15v10.86h16.54v2.94h-19.62v-29.59h18.98Z"/>
    <path d="m315.9,177.37c1.8,1.57,2.81,3.94,3.07,7.05h-3.04c-.34-2.16-1.09-3.73-2.25-4.77-1.2-1.08-2.89-1.57-5.06-1.57-1.99,0-3.52.33-4.65,1.08-1.27.83-1.91,2.07-1.91,3.77,0,1.49.75,2.69,2.29,3.61.68.41,2.33,1.04,4.91,1.87,3.52,1.16,5.85,2.11,6.98,2.86,2.21,1.49,3.34,3.56,3.34,6.26s-.94,4.64-2.81,6.13c-1.88,1.45-4.39,2.2-7.58,2.2s-5.63-.75-7.43-2.24c-2.1-1.78-3.26-4.48-3.49-8.12h3.04c.26,2.57,1.09,4.48,2.44,5.68,1.24,1.08,3.04,1.66,5.44,1.66,2.18,0,3.98-.46,5.33-1.37s2.02-2.16,2.02-3.73c0-1.87-.9-3.32-2.66-4.35-.75-.5-2.66-1.2-5.66-2.16-3.23-1.08-5.29-1.91-6.15-2.4-2.06-1.33-3.08-3.23-3.08-5.72s.98-4.6,2.96-6.01c1.76-1.33,4.05-1.99,6.83-1.99,3,0,5.4.75,7.13,2.28Z"/>
    <path d="m343.36,175.67v2.94h-9.45v26.65h-3.04v-26.65h-9.45v-2.94h21.94Z"/>
  </g>
  <g>
    <path d="m2.06,318.54l-2.06-3.15c9.6-2.48,16.31-5.83,20.13-9.96.62-.72,1.13-1.5,1.65-2.32H.46v-3.51h23.12c1.34-3.2,2.06-6.86,2.22-10.94v-6.09h3.61v6.09c-.15,4.08-.77,7.74-1.91,10.94h16.57v3.51h-18.11c-.46.83-.93,1.6-1.39,2.32,7.33,2.89,14.09,6.24,20.18,10.17l-2.01,3.2c-6.61-4.44-13.31-7.95-20.23-10.63-4.18,4.44-10.99,7.9-20.44,10.37Zm41.13-32.41h-3.61v-6.45H4.8v6.45H1.19v-9.91h19.61c-.62-1.75-1.34-3.3-2.12-4.75l3.82-.62c.67,1.55,1.34,3.35,2.01,5.37h18.68v9.91Zm-25.54,9.19l-1.91,2.94c-3.3-2.48-6.76-4.44-10.27-5.83l1.86-2.79c3.77,1.6,7.23,3.51,10.32,5.68Zm4.95-7.17l-1.91,2.94c-3.46-2.58-7.02-4.59-10.63-6.04l1.91-2.79c3.87,1.6,7.43,3.56,10.63,5.88Z"/>
    <path d="m61.51,306.06c-3.41,1.29-7.22,2.32-11.51,3.15l-.46-3.51c4.54-.77,8.57-1.75,11.97-2.99v3.35Zm-10.58-29.11v-3.41h16.2l-2.48,21.26h3.2c0,11.77-.52,18.53-1.5,20.33-1.03,1.75-3.15,2.68-6.4,2.68-1.19,0-2.42-.05-3.66-.15l-.98-3.3c1.81.21,3.1.31,3.82.31,2.48,0,3.97-.83,4.49-2.37.52-1.65.83-6.35.83-14.19h-13.16l2.43-17.7,3.41.21-2.06,14.19h6.09l2.27-17.86h-12.49Zm18.73,14.91l-1.96-2.99c5.78-4.49,10.27-10.32,13.37-17.49h3.41c2.58,6.61,7.12,12.33,13.52,17.29l-2.01,3.1c-2.22-1.7-4.18-3.51-5.93-5.42v3.2h-14.5v-3.2c-1.86,2.06-3.82,3.92-5.88,5.52Zm16.31,21.26c1.96-5.47,3.72-12.28,5.26-20.38l3.56.88c-1.45,7.33-3.15,13.83-5.21,19.51h7.79v3.56h-28.18v-3.56h16.77Zm-7.59-4.08l-3.2.77c-1.13-5.06-2.63-9.86-4.44-14.5l3.2-1.08c1.65,4.28,3.1,9.24,4.44,14.81Zm4.39-34.06c-2.06,4.33-4.39,8.05-7.07,11.15h14.19c-2.99-3.41-5.37-7.12-7.12-11.15Zm2.89,31.84l-3.25.77c-.93-4.8-2.17-9.44-3.72-13.88l3.2-.98c1.39,4.08,2.63,8.77,3.77,14.09Z"/>
    <path d="m110.37,276.07v-4.85h3.41v4.85h7.07v3.41h-7.07v5.06h6.09v3.3h-6.09v5.37h7.74v3.41h-7.74v2.99c2.68,2.12,5.37,4.54,8.1,7.28l-1.96,2.99c-2.37-3.05-4.44-5.47-6.14-7.23v15.79h-3.41v-15.69c-1.86,3.92-4.28,7.43-7.23,10.63l-1.55-3.77c4.13-3.82,7.02-8.15,8.77-13h-7.9v-3.41h7.9v-5.37h-6.45v-3.3h6.45v-5.06h-6.71v-3.41h6.71Zm25.03,41.49c-2.68,0-3.97-1.5-3.97-4.44v-10.84l-9.86,1.91-.57-3.56,10.42-2.06v-8.05l-8.26,1.6-.57-3.61,8.82-1.7v-8.26c-2.79.52-5.62.93-8.57,1.13l-1.13-3.25c8.57-.83,15.69-2.48,21.47-5.01l1.81,2.99c-3.2,1.34-6.5,2.48-10.01,3.35v8.31l10.17-2.01.57,3.61-10.73,2.12v8.1l12.54-2.48.57,3.61-13.11,2.53v10.79c0,1.13.52,1.7,1.6,1.7h5.47c1.03,0,1.81-.31,2.22-.88.52-.67.93-2.68,1.13-5.99l3.3,1.08c-.31,4.39-.98,7.07-1.96,8.05-.83.83-2.17,1.24-4.03,1.24h-7.33Z"/>
    <path d="m162.54,281.29v-10.06h3.72v10.06h6.86v3.56h-6.86v3.04c2.63,2.48,5.32,5.26,8.05,8.41l-2.17,3.2c-2.27-3.2-4.23-5.78-5.88-7.74v26.53h-3.72v-27.04c-1.91,5.57-4.49,10.63-7.69,15.12l-1.65-4.18c4.28-5.06,7.33-10.84,9.19-17.34h-8.15v-3.56h8.31Zm12.9,3.66v-3.56h14.81v-10.22h3.72v10.22h5.93v3.56h-5.93v28.18c0,3.15-1.55,4.75-4.54,4.75h-5.63l-.83-3.61c1.81.1,3.56.21,5.21.21,1.34,0,2.06-.77,2.06-2.27v-24.26c-3.61,9.65-9.29,17.65-16.93,24l-1.96-3.35c7.95-6.09,13.73-13.99,17.24-23.63h-13.16Z"/>
    <path d="m215.53,285.36v-7.43c-2.58.41-5.21.72-7.9.93l-1.19-3.3c7.69-.62,14.09-1.91,19.25-3.87l1.75,3.1c-2.68.98-5.42,1.81-8.31,2.43v8.15h8.82v3.46h-8.82v2.58c2.99,2.63,5.99,5.63,9.03,9.03l-2.17,3.2c-2.68-3.66-4.95-6.61-6.86-8.77v23.27h-3.61v-22.91c-2.22,4.9-5.16,9.34-8.82,13.31l-1.55-4.03c4.8-4.54,8.26-9.65,10.37-15.33v-.36h-9.03v-3.46h9.03Zm34.27,31.07h-3.61v-4.08h-12.54v4.59h-3.56v-42.26h19.71v41.75Zm-3.61-7.59v-30.71h-12.54v30.71h12.54Z"/>
    <path d="m271.77,272.51c-1.34,4.02-3.05,7.84-5.11,11.4v34.58h-3.72v-28.9c-1.65,2.22-3.51,4.33-5.47,6.4l-1.19-3.92c5.52-6.19,9.55-13.26,12.02-21.21l3.46,1.65Zm28.64,1.81c-1.75,12.39-5.37,22.45-10.94,30.14,4.23,4.59,9.08,8.21,14.66,10.84l-2.22,3.3c-5.68-2.84-10.58-6.55-14.76-11.2-4.13,4.8-9.19,8.51-15.07,11.15l-2.01-3.3c5.78-2.58,10.58-6.19,14.5-10.84-5.21-6.55-9.34-14.66-12.33-24.31l3.25-1.81c2.68,9.24,6.5,16.93,11.4,23.12,5.06-7.28,8.41-16.57,9.96-27.82l3.56.72Zm-10.37,7.95l-3.05,2.06c-1.91-3.51-4.33-7.23-7.22-11.15l2.84-2.06c3.2,4.23,5.68,7.95,7.43,11.15Z"/>
    <path d="m326.47,290.83c.98-1.34,1.75-2.74,2.37-4.18l3.56.36c-.52,1.34-1.19,2.58-1.91,3.82h13.31c-.72-1.29-1.5-2.48-2.32-3.51l3.15-1.03c1.08,1.45,2.01,2.94,2.84,4.54h7.12v3.3h-13.93c3.35,3.1,8.36,5.57,15.02,7.38l-1.5,3.15c-1.29-.41-2.48-.88-3.61-1.29v15.17h-3.3v-2.22h-9.65v2.22h-3.3v-16.26h13.78c-4.95-2.27-8.77-5.01-11.35-8.15h-8.72c-2.89,3.3-6.76,5.99-11.61,8.15h12.95v16.26h-3.3v-2.22h-8.82v2.22h-3.25v-15.22c-1.39.52-2.79.98-4.23,1.45l-1.7-3.05c6.61-1.96,11.66-4.49,15.28-7.59h-14.24v-3.3h17.39Zm2.53-17.7v12.54h-15.74v-12.54h15.74Zm-3.41,3.2h-8.98v6.19h8.98v-6.19Zm.46,36.8v-7.74h-8.82v7.74h8.82Zm24.72-40v12.54h-16.05v-12.54h16.05Zm-3.51,40v-7.74h-9.65v7.74h9.65Zm.15-36.8h-9.29v6.19h9.29v-6.19Z"/>
    <path d="m360.47,296.2l-1.24-3.92c5.63-6.3,9.7-13.47,12.28-21.52l3.51,1.6c-1.34,4.03-3.05,7.84-5.11,11.41v34.73h-3.82v-28.9c-1.7,2.27-3.56,4.49-5.63,6.61Zm21.47-14.04v-10.79h3.82v10.79h9.24v-10.79h3.77v10.79h6.86v3.61h-6.86v12.08h8.31v3.56h-33.23v-3.56h8.1v-12.08h-6.66v-3.61h6.66Zm4.95,23.12c-2.68,5.06-5.88,9.44-9.55,13.16l-3.2-2.32c3.61-3.46,6.76-7.59,9.34-12.44l3.41,1.6Zm8.1-7.43v-12.08h-9.24v12.08h9.24Zm11.51,18.22l-3.3,2.27c-2.37-3.92-5.63-8.31-9.7-13.16l3.05-1.86c4.33,4.85,7.64,9.13,9.96,12.75Z"/>
    <path d="m439.11,276.13h18.89v3.61h-38.24v11.51c-.21,11.35-1.96,20.44-5.32,27.25l-3.04-2.73c2.89-5.88,4.44-14.04,4.54-24.51v-15.12h19.15c-.83-1.65-1.75-3.2-2.79-4.64l4.08-.72c.98,1.6,1.91,3.41,2.73,5.37Zm3.15,36.54c3.2-7.33,5.99-16.36,8.36-27.2l3.66.98c-2.17,9.81-4.8,18.58-8,26.22h10.89v3.61h-36.43v-3.61h21.52Zm-10.32-5.73l-3.51.88c-1.39-6.5-3.15-12.8-5.31-18.78l3.25-1.03c2.06,5.47,3.92,11.82,5.57,18.94Zm9.19-3.04l-3.56.83c-1.13-6.71-2.63-13.16-4.49-19.35l3.25-1.03c1.75,5.68,3.35,12.23,4.8,19.56Z"/>
    <path d="m488.74,275.4h20.75v3.61h-11.15c-.93,2.32-1.96,4.39-2.99,6.24h11.46v27.87c0,3.41-1.55,5.11-4.54,5.11h-5.26l-.93-3.41,5.01.15c1.44,0,2.17-.93,2.17-2.68v-23.74h-33.34v29.57h-3.56v-32.87h10.89c-.77-2.22-1.7-4.28-2.73-6.24h-10.73v-3.61h21c-.62-1.5-1.24-2.84-1.91-4.08l4.08-.67c.62,1.45,1.24,2.99,1.81,4.75Zm-4.85,16.41c-2.94,3.56-6.61,6.66-10.94,9.29l-2.37-3.1c4.23-2.37,7.79-5.21,10.68-8.51l2.63,2.32Zm12.28,7.69v12.7h-19.15v-12.7h19.15Zm-4.85-14.24c1.08-2.06,2.06-4.13,2.94-6.24h-15.64c.88,1.86,1.7,3.97,2.48,6.24h10.22Zm1.29,17.6h-12.02v6.04h12.02v-6.04Zm9.7-4.54l-2.79,2.73c-2.53-2.89-5.99-5.99-10.42-9.24l2.53-2.37c4.23,2.99,7.79,5.93,10.68,8.88Z"/>
  </g>
  <path d="m128.04,47c28.13-26.85,94.82-58.49,115.28-42.83,20.46,15.66-15.34,47.94-20.14,52.1,3.2-5.43,9.27-20.14-.96-30.05-12.85-12.45-60.62,1.91-94.18,20.78Z"/>
  <path d="m607.58,71.93h-23.79v-2.65c0-15.55-21.43-22.27-32.36-22.27-12.48,0-30.55,8.04-30.55,22.58v2.35h-22.25l-13.22,110.9h134.72l-12.55-110.9Zm-74.5-2.35c0-5.25,10.5-10.37,18.35-10.37,8.33,0,20.16,5.21,20.16,10.07v2.65h-38.5v-2.35Zm-12.2,14.55v17.74h12.2v-17.74h38.5v17.74h12.2v-17.74h12.9l7.05,62.34h-101.71l7.43-62.34h11.42Zm-21.73,86.5l1.43-11.96h104.54l1.35,11.96h-107.32Z"/>
  <path class="cls-1" d="m631.55,76.24h-22.87v-2.55c0-14.94-20.59-21.41-31.1-21.41-12,0-29.36,7.73-29.36,21.7v2.26h-21.39l-12.71,106.59h129.49l-12.06-106.59Zm-71.6-2.26c0-5.04,10.1-9.97,17.63-9.97,8,0,19.37,5.01,19.37,9.68v2.55h-37.01v-2.26Zm-11.73,13.99v17.05h11.73v-17.05h37.01v17.05h11.73v-17.05h12.39l6.78,59.92h-97.75l7.15-59.92h10.98Zm-20.89,83.14l1.37-11.49h100.48l1.3,11.49h-103.15Z"/>
</svg>