<?xml version="1.0" encoding="utf-8"?>
<!-- Generator: Adobe Illustrator 26.0.0, SVG Export Plug-In . SVG Version: 6.00 Build 0)  -->
<svg version="1.2" baseProfile="tiny" id="图层_1"
	 xmlns="http://www.w3.org/2000/svg" xmlns:xlink="http://www.w3.org/1999/xlink" x="0px" y="0px" viewBox="0 0 200 80"
	 overflow="visible" xml:space="preserve">
<g>
	<path fill="#83B735" d="M60.11,49.85c-11.31,0-20.47-9.17-20.47-20.47S48.8,8.91,60.11,8.91c4.19,0,8.09,1.26,11.34,3.43
		c-3.83-3.18-8.75-5.09-14.12-5.09c-12.22,0-22.13,9.91-22.13,22.13s9.91,22.13,22.13,22.13c5.37,0,10.29-1.91,14.12-5.09
		C68.2,48.59,64.3,49.85,60.11,49.85z"/>
	<path d="M63.36,41.14c-5.88,7-22.6,15.97-26.82,12.73c-4.23-3.24,2.75-10.55,3.74-11.41c-0.66,1.12-1.92,4.16,0.2,6.21
		C43.14,51.25,56.43,45.04,63.36,41.14z"/>
	<g>
		<path d="M55.18,28.76c1.74,0.81,3.42,1.7,5.04,2.64l-1.08,1.02c-1.65-0.99-3.1-1.78-4.33-2.39c-1.08,0.71-2.25,1.4-3.47,2.01h6.77
			v1.3h-2.85v1.5h4.21v1.35h-4.21v3.23c0.51-0.05,1-0.08,1.45-0.13c0.34-0.81,0.63-1.65,0.8-2.49l1.57,0.15
			c-0.2,0.79-0.46,1.53-0.8,2.19c0.51-0.05,1.02-0.13,1.51-0.18v1.35c-3.27,0.43-7,0.79-11.19,1.07l-0.2-1.45l2.31-0.15
			c-0.4-0.89-0.8-1.68-1.22-2.37L50.94,37c0.46,0.84,0.88,1.73,1.22,2.67l1.31-0.1v-3.38h-4.27v-1.35h4.27v-1.5h-2.76v-0.99
			c-0.63,0.28-1.22,0.56-1.85,0.84l-0.88-1.09c2.33-0.97,4.44-2.06,6.38-3.33H55.18z M49.26,23.35l-1.02-1.4
			c5.12-0.97,9.05-2.24,11.84-3.76h1.37c2.31,1.42,6.26,2.67,11.84,3.76l-1.02,1.4c-1.79-0.38-3.42-0.76-4.84-1.17v0.76h-5.66v1.35
			h8.23v1.32h-2.33l-0.74,1.63h4.98v1.37H49.6v-1.37h4.92l-0.71-1.63H51.2v-1.32h8.57v-1.35h-5.78V22.2
			C52.51,22.63,50.91,23.02,49.26,23.35z M60.76,19.43c-1.54,0.84-3.22,1.58-5.1,2.24H65.8C63.75,20.98,62.07,20.24,60.76,19.43z
			 M59.77,27.24v-1.63h-4.1l0.71,1.63H59.77z M67.28,28.74c1.88,1.35,4.01,2.54,6.38,3.61l-0.91,1.3c-0.63-0.33-1.2-0.64-1.74-0.94
			v0.76h-3.13v1.58h4.33v1.35h-4.33v3.08h1.54c0.43-0.81,0.74-1.63,0.94-2.49l1.59,0.2c-0.23,0.81-0.57,1.58-1,2.29h2.22v1.42H60.71
			v-1.42h2.42c-0.4-0.74-0.8-1.4-1.22-2.01l1.48-0.43c0.48,0.76,0.91,1.58,1.28,2.44h1.39v-3.08h-4.53v-1.35h4.53v-1.58h-3.1v-0.71
			c-0.74,0.41-1.48,0.84-2.25,1.27l-0.94-1.27c2.48-1.17,4.73-2.49,6.72-4.02H67.28z M65.03,27.24l0.74-1.63h-4.01v1.63H65.03z
			 M70.13,32.2c-1.25-0.74-2.33-1.45-3.24-2.16c-0.91,0.71-1.94,1.45-3.05,2.16H70.13z"/>
		<path fill="#83B735" d="M101.7,20.02v1.75H87.04v1.12c-0.03,1.55-0.11,3-0.28,4.35h12.27c-0.06,6.71-0.37,10.76-1,12.08
			c-0.68,1.32-1.82,1.98-3.42,1.98c-1.14,0-2.53-0.05-4.13-0.1l-0.51-1.75c1.68,0.05,3.05,0.1,4.13,0.13
			c1.2-0.05,1.96-0.64,2.31-1.78c0.28-1.12,0.48-4.09,0.54-8.88H86.53c-0.4,2.34-1,4.37-1.85,6.08c-1.48,2.82-3.9,5.01-7.2,6.56
			l-1.14-1.6c3.24-1.58,5.49-3.71,6.77-6.36c1.2-2.75,1.82-6.31,1.91-10.71v-1.12h-8.25v-1.75H101.7z"/>
		<path fill="#83B735" d="M109.98,28.71l-1.34,1.2c-0.97-1.14-2.28-2.36-3.96-3.66l1.39-1.17C107.62,26.3,108.93,27.49,109.98,28.71
			z M110.33,32.53c-1.08,3.1-2.31,6.03-3.61,8.77l-1.88-0.71c1.42-2.82,2.68-5.72,3.76-8.67L110.33,32.53z M110.55,22.2l-1.34,1.22
			c-0.97-1.07-2.33-2.21-4.07-3.41l1.39-1.2C108.13,19.94,109.47,21.08,110.55,22.2z M117.33,22.86v8.06
			c-0.06,2.9-0.57,5.21-1.54,6.94c-0.94,1.58-2.48,2.85-4.58,3.76l-1.08-1.53c2.05-0.86,3.47-2.01,4.27-3.43
			c0.74-1.47,1.17-3.38,1.22-5.75v-8.06H117.33z M121.23,35.05h-1.82V21.11h-5.89V35.2h-1.82V19.53h9.54V35.05z M122.54,40.39
			l-1.37,1.22c-1.02-1.35-2.42-2.77-4.24-4.3l1.25-1.07C119.92,37.61,121.37,39.01,122.54,40.39z M125.27,20.52v15.87h-1.79V20.52
			H125.27z M124.24,41.4l-0.43-1.7c1,0.08,1.96,0.13,2.87,0.13c0.65,0,1-0.36,1-1.02V18.44h1.94v20.8c0,1.42-0.77,2.16-2.25,2.16
			H124.24z"/>
	</g>
	<g>
		<path d="M73.96,43.36l1.5,2.38l1.5-2.38h0.78l-1.91,2.94l2.05,3.18h-0.78l-1.65-2.62l-1.64,2.62h-0.78l2.04-3.18l-1.89-2.94H73.96
			z"/>
		<path d="M78.69,43.36l1.22,5.13h0.03l1.26-5.13h0.69l1.26,5.13h0.03l1.22-5.13h0.71l-1.59,6.12h-0.71l-1.26-5.1h-0.02l-1.26,5.1
			h-0.71l-1.59-6.12H78.69z"/>
		<path d="M89.81,43.36v0.61h-1.95v5.51h-0.63v-5.51h-1.95v-0.61H89.81z"/>
		<path d="M94.43,43.36v0.61h-3.29v2.05h3.1v0.61h-3.1v2.24h3.42v0.61h-4.05v-6.12H94.43z"/>
		<path d="M98.78,43.71c0.37,0.33,0.58,0.81,0.64,1.46h-0.63c-0.07-0.45-0.22-0.77-0.47-0.99c-0.25-0.22-0.6-0.33-1.05-0.33
			c-0.41,0-0.73,0.07-0.96,0.22c-0.26,0.17-0.4,0.43-0.4,0.78c0,0.31,0.16,0.56,0.47,0.75c0.14,0.09,0.48,0.21,1.02,0.39
			c0.73,0.24,1.21,0.44,1.44,0.59c0.46,0.31,0.69,0.74,0.69,1.29c0,0.53-0.19,0.96-0.58,1.27c-0.39,0.3-0.91,0.45-1.57,0.45
			c-0.65,0-1.16-0.15-1.53-0.46c-0.43-0.37-0.67-0.93-0.72-1.68h0.63c0.05,0.53,0.22,0.93,0.5,1.17c0.26,0.22,0.63,0.34,1.12,0.34
			c0.45,0,0.82-0.09,1.1-0.28s0.42-0.45,0.42-0.77c0-0.39-0.19-0.69-0.55-0.9c-0.16-0.1-0.55-0.25-1.17-0.45
			c-0.67-0.22-1.09-0.39-1.27-0.5c-0.43-0.27-0.64-0.67-0.64-1.18c0-0.53,0.2-0.95,0.61-1.24c0.36-0.27,0.84-0.41,1.41-0.41
			C97.93,43.24,98.42,43.4,98.78,43.71z"/>
		<path d="M104.45,43.36v0.61h-1.95v5.51h-0.63v-5.51h-1.95v-0.61H104.45z"/>
	</g>
	<g>
		<path d="M33.91,72.89l-0.43-0.65c1.98-0.51,3.37-1.21,4.16-2.06c0.13-0.15,0.23-0.31,0.34-0.48h-4.41v-0.73h4.78
			c0.28-0.66,0.43-1.42,0.46-2.26v-1.26h0.75v1.26c-0.03,0.84-0.16,1.6-0.39,2.26h3.42v0.73h-3.74c-0.1,0.17-0.19,0.33-0.29,0.48
			c1.51,0.6,2.91,1.29,4.17,2.1l-0.42,0.66c-1.37-0.92-2.75-1.64-4.18-2.2C37.27,71.67,35.86,72.38,33.91,72.89z M42.41,66.2h-0.75
			v-1.33h-7.19v1.33h-0.75v-2.05h4.05c-0.13-0.36-0.28-0.68-0.44-0.98l0.79-0.13c0.14,0.32,0.28,0.69,0.42,1.11h3.86V66.2z
			 M37.13,68.09l-0.39,0.61c-0.68-0.51-1.4-0.92-2.12-1.21L35,66.92C35.78,67.25,36.49,67.65,37.13,68.09z M38.16,66.61l-0.39,0.61
			c-0.71-0.53-1.45-0.95-2.2-1.25l0.39-0.58C36.76,65.73,37.49,66.13,38.16,66.61z"/>
		<path d="M46.2,70.31c-0.7,0.27-1.49,0.48-2.38,0.65l-0.1-0.73c0.94-0.16,1.77-0.36,2.47-0.62V70.31z M44.01,64.3v-0.7h3.35
			l-0.51,4.39h0.66c0,2.43-0.11,3.83-0.31,4.2c-0.21,0.36-0.65,0.55-1.32,0.55c-0.25,0-0.5-0.01-0.76-0.03l-0.2-0.68
			c0.37,0.04,0.64,0.06,0.79,0.06c0.51,0,0.82-0.17,0.93-0.49c0.11-0.34,0.17-1.31,0.17-2.93h-2.72l0.5-3.66l0.7,0.04l-0.43,2.93
			h1.26l0.47-3.69H44.01z M47.88,67.38l-0.41-0.62c1.19-0.93,2.12-2.13,2.76-3.62h0.7c0.53,1.37,1.47,2.55,2.79,3.57l-0.42,0.64
			c-0.46-0.35-0.86-0.73-1.23-1.12v0.66h-3v-0.66C48.71,66.67,48.31,67.05,47.88,67.38z M51.25,71.77c0.41-1.13,0.77-2.54,1.09-4.21
			l0.74,0.18c-0.3,1.51-0.65,2.86-1.08,4.03h1.61v0.74h-5.82v-0.74H51.25z M49.68,70.93l-0.66,0.16c-0.23-1.05-0.54-2.04-0.92-3
			l0.66-0.22C49.11,68.76,49.41,69.78,49.68,70.93z M50.59,63.89c-0.43,0.9-0.91,1.66-1.46,2.3h2.93
			C51.44,65.49,50.95,64.72,50.59,63.89z M51.19,70.47l-0.67,0.16c-0.19-0.99-0.45-1.95-0.77-2.87l0.66-0.2
			C50.7,68.4,50.95,69.37,51.19,70.47z"/>
		<path d="M56.3,64.12v-1H57v1h1.46v0.7H57v1.05h1.26v0.68H57v1.11h1.6v0.7H57v0.62c0.55,0.44,1.11,0.94,1.67,1.5l-0.41,0.62
			c-0.49-0.63-0.92-1.13-1.27-1.49v3.26h-0.7v-3.24c-0.38,0.81-0.89,1.54-1.49,2.2l-0.32-0.78c0.85-0.79,1.45-1.69,1.81-2.69h-1.63
			v-0.7h1.63v-1.11h-1.33v-0.68h1.33v-1.05h-1.39v-0.7H56.3z M61.47,72.69c-0.55,0-0.82-0.31-0.82-0.92v-2.24l-2.04,0.39l-0.12-0.74
			l2.15-0.43V67.1l-1.71,0.33l-0.12-0.75l1.82-0.35v-1.71c-0.58,0.11-1.16,0.19-1.77,0.23l-0.23-0.67c1.77-0.17,3.24-0.51,4.44-1.03
			l0.37,0.62c-0.66,0.28-1.34,0.51-2.07,0.69v1.72l2.1-0.42l0.12,0.75l-2.22,0.44v1.67l2.59-0.51l0.12,0.75l-2.71,0.52v2.23
			c0,0.23,0.11,0.35,0.33,0.35h1.13c0.21,0,0.37-0.06,0.46-0.18c0.11-0.14,0.19-0.55,0.23-1.24l0.68,0.22
			c-0.06,0.91-0.2,1.46-0.41,1.66c-0.17,0.17-0.45,0.26-0.83,0.26H61.47z"/>
		<path d="M67.08,65.19v-2.08h0.77v2.08h1.42v0.74h-1.42v0.63c0.54,0.51,1.1,1.09,1.66,1.74l-0.45,0.66
			c-0.47-0.66-0.87-1.19-1.22-1.6v5.48h-0.77v-5.59c-0.39,1.15-0.93,2.2-1.59,3.13l-0.34-0.86c0.89-1.05,1.51-2.24,1.9-3.58h-1.69
			v-0.74H67.08z M69.75,65.95v-0.74h3.06V63.1h0.77v2.11h1.23v0.74h-1.23v5.82c0,0.65-0.32,0.98-0.94,0.98h-1.16l-0.17-0.75
			c0.37,0.02,0.74,0.04,1.08,0.04c0.28,0,0.43-0.16,0.43-0.47v-5.01c-0.75,1.99-1.92,3.65-3.5,4.96l-0.41-0.69
			c1.64-1.26,2.84-2.89,3.56-4.89H69.75z"/>
		<path d="M78.03,66.04V64.5c-0.53,0.09-1.08,0.15-1.63,0.19l-0.25-0.68c1.59-0.13,2.91-0.39,3.98-0.8l0.36,0.64
			c-0.55,0.2-1.12,0.37-1.72,0.5v1.69h1.82v0.71h-1.82v0.53c0.62,0.54,1.24,1.16,1.87,1.87l-0.45,0.66
			c-0.55-0.76-1.02-1.37-1.42-1.81v4.81h-0.75v-4.74c-0.46,1.01-1.07,1.93-1.82,2.75l-0.32-0.83c0.99-0.94,1.71-1.99,2.14-3.17
			v-0.07h-1.87v-0.71H78.03z M85.12,72.46h-0.75v-0.84h-2.59v0.95h-0.74v-8.74h4.07V72.46z M84.37,70.89v-6.35h-2.59v6.35H84.37z"/>
		<path d="M89.66,63.38c-0.28,0.83-0.63,1.62-1.06,2.36v7.15h-0.77v-5.97c-0.34,0.46-0.73,0.9-1.13,1.32l-0.25-0.81
			c1.14-1.28,1.97-2.74,2.49-4.38L89.66,63.38z M95.58,63.75c-0.36,2.56-1.11,4.64-2.26,6.23c0.87,0.95,1.88,1.7,3.03,2.24
			l-0.46,0.68c-1.17-0.59-2.19-1.35-3.05-2.31c-0.85,0.99-1.9,1.76-3.11,2.3l-0.42-0.68c1.19-0.53,2.19-1.28,3-2.24
			c-1.08-1.35-1.93-3.03-2.55-5.02l0.67-0.37c0.55,1.91,1.34,3.5,2.36,4.78c1.05-1.5,1.74-3.42,2.06-5.75L95.58,63.75z M93.43,65.4
			l-0.63,0.43c-0.39-0.73-0.9-1.49-1.49-2.3l0.59-0.43C92.56,63.97,93.07,64.73,93.43,65.4z"/>
		<path d="M100.96,67.17c0.2-0.28,0.36-0.57,0.49-0.86l0.74,0.07c-0.11,0.28-0.25,0.53-0.39,0.79h2.75
			c-0.15-0.27-0.31-0.51-0.48-0.73l0.65-0.21c0.22,0.3,0.42,0.61,0.59,0.94h1.47v0.68h-2.88c0.69,0.64,1.73,1.15,3.1,1.53
			l-0.31,0.65c-0.27-0.09-0.51-0.18-0.75-0.27v3.14h-0.68v-0.46h-1.99v0.46h-0.68v-3.36h2.85c-1.02-0.47-1.81-1.03-2.35-1.69h-1.8
			c-0.6,0.68-1.4,1.24-2.4,1.69h2.68v3.36h-0.68v-0.46h-1.82v0.46h-0.67v-3.15c-0.29,0.11-0.58,0.2-0.87,0.3l-0.35-0.63
			c1.37-0.41,2.41-0.93,3.16-1.57h-2.94v-0.68H100.96z M101.49,63.51v2.59h-3.25v-2.59H101.49z M100.78,64.17h-1.86v1.28h1.86V64.17
			z M100.88,71.77v-1.6h-1.82v1.6H100.88z M105.99,63.51v2.59h-3.32v-2.59H105.99z M105.26,71.77v-1.6h-1.99v1.6H105.26z
			 M105.29,64.17h-1.92v1.28h1.92V64.17z"/>
		<path d="M107.99,68.28l-0.26-0.81c1.16-1.3,2.01-2.78,2.54-4.45l0.73,0.33c-0.28,0.83-0.63,1.62-1.06,2.36v7.18h-0.79v-5.97
			C108.8,67.38,108.42,67.84,107.99,68.28z M112.43,65.37v-2.23h0.79v2.23h1.91v-2.23h0.78v2.23h1.42v0.75h-1.42v2.5h1.72v0.74
			h-6.87v-0.74h1.67v-2.5h-1.38v-0.75H112.43z M113.45,70.15c-0.55,1.05-1.22,1.95-1.97,2.72l-0.66-0.48
			c0.75-0.71,1.4-1.57,1.93-2.57L113.45,70.15z M115.13,68.62v-2.5h-1.91v2.5H115.13z M117.51,72.38l-0.68,0.47
			c-0.49-0.81-1.16-1.72-2.01-2.72l0.63-0.38C116.34,70.75,117.03,71.64,117.51,72.38z"/>
		<path d="M124.25,64.13h3.9v0.75h-7.9v2.38c-0.04,2.35-0.41,4.22-1.1,5.63l-0.63-0.57c0.6-1.22,0.92-2.9,0.94-5.07v-3.13h3.96
			c-0.17-0.34-0.36-0.66-0.58-0.96l0.84-0.15C123.88,63.35,124.08,63.72,124.25,64.13z M124.9,71.68c0.66-1.51,1.24-3.38,1.73-5.62
			l0.76,0.2c-0.45,2.03-0.99,3.84-1.65,5.42h2.25v0.75h-7.53v-0.75H124.9z M122.76,70.49l-0.73,0.18c-0.29-1.34-0.65-2.65-1.1-3.88
			l0.67-0.21C122.04,67.71,122.42,69.02,122.76,70.49z M124.66,69.87l-0.74,0.17c-0.23-1.39-0.54-2.72-0.93-4l0.67-0.21
			C124.03,67,124.36,68.35,124.66,69.87z"/>
		<path d="M134.51,63.98h4.29v0.75h-2.3c-0.19,0.48-0.41,0.91-0.62,1.29h2.37v5.76c0,0.7-0.32,1.06-0.94,1.06h-1.09l-0.19-0.7
			l1.03,0.03c0.3,0,0.45-0.19,0.45-0.55V66.7h-6.89v6.11h-0.74v-6.79h2.25c-0.16-0.46-0.35-0.89-0.57-1.29h-2.22v-0.75h4.34
			c-0.13-0.31-0.26-0.59-0.39-0.84l0.84-0.14C134.26,63.29,134.39,63.61,134.51,63.98z M133.5,67.37c-0.61,0.74-1.37,1.38-2.26,1.92
			l-0.49-0.64c0.87-0.49,1.61-1.08,2.21-1.76L133.5,67.37z M136.04,68.96v2.62h-3.96v-2.62H136.04z M135.04,66.01
			c0.22-0.43,0.43-0.85,0.61-1.29h-3.23c0.18,0.38,0.35,0.82,0.51,1.29H135.04z M135.31,69.65h-2.49v1.25h2.49V69.65z M137.31,68.71
			l-0.58,0.57c-0.52-0.6-1.24-1.24-2.15-1.91l0.52-0.49C135.98,67.5,136.71,68.11,137.31,68.71z"/>
	</g>
	<path d="M59.95,16.77c5.81-5.55,19.6-12.09,23.83-8.85s-3.17,9.91-4.16,10.77c0.66-1.12,1.92-4.16-0.2-6.21
		C76.76,9.9,66.89,12.87,59.95,16.77z"/>
	<path d="M159.07,21.92h-4.92v-0.55c0-3.21-4.43-4.6-6.69-4.6c-2.58,0-6.31,1.66-6.31,4.67v0.49h-4.6l-2.73,22.92h27.85
		L159.07,21.92z M143.67,21.43c0-1.08,2.17-2.14,3.79-2.14c1.72,0,4.17,1.08,4.17,2.08v0.55h-7.96V21.43z M141.15,24.44v3.67h2.52
		v-3.67h7.96v3.67h2.52v-3.67h2.67l1.46,12.89h-21.02l1.54-12.89H141.15z M136.66,42.32l0.29-2.47h21.61l0.28,2.47H136.66z"/>
	<path fill="#83B735" d="M164.02,22.81h-4.73v-0.53c0-3.09-4.26-4.43-6.43-4.43c-2.48,0-6.07,1.6-6.07,4.49v0.47h-4.42l-2.63,22.03
		h26.76L164.02,22.81z M149.22,22.34c0-1.04,2.09-2.06,3.64-2.06c1.65,0,4,1.03,4,2v0.53h-7.65V22.34z M146.8,25.23v3.52h2.42v-3.52
		h7.65v3.52h2.42v-3.52h2.56l1.4,12.39h-20.21l1.48-12.39H146.8z M142.48,42.42l0.28-2.38h20.77l0.27,2.38H142.48z"/>
</g>
</svg>
