<?xml version="1.0" encoding="UTF-8"?>
<svg id="_图层_1" data-name="图层 1" xmlns="http://www.w3.org/2000/svg" viewBox="0 0 635.35 229.83">
  <defs>
    <style>
      .cls-1 {
        fill: #fff;
      }

      .cls-2 {
        fill: #83b735;
      }
    </style>
  </defs>
  <path class="cls-2" d="m120.54,207.07c-54.7,0-99.04-44.34-99.04-99.04S65.84,8.99,120.54,8.99c20.28,0,39.14,6.11,54.84,16.57C156.84,10.19,133.04.95,107.08.95,47.94.95,0,48.89,0,108.03s47.94,107.08,107.08,107.08c25.96,0,49.76-9.24,68.3-24.61-15.7,10.46-34.56,16.57-54.84,16.57Z"/>
  <path class="cls-1" d="m136.29,164.94c-28.45,33.88-109.31,77.25-129.77,61.59s13.32-51.05,18.12-55.21c-3.2,5.43-9.27,20.14.96,30.05,12.85,12.45,77.13-17.56,110.7-36.43Z"/>
  <g>
    <path class="cls-1" d="m96.72,105.04c8.4,3.94,16.53,8.24,24.37,12.8l-5.23,4.92c-7.99-4.8-15.01-8.61-20.93-11.57-5.23,3.44-10.88,6.77-16.8,9.72h32.78v6.28h-13.77v7.26h20.38v6.52h-20.38v15.63c2.48-.25,4.82-.37,7.02-.61,1.65-3.94,3.03-8,3.86-12.06l7.57.74c-.96,3.81-2.2,7.38-3.86,10.58,2.48-.25,4.96-.61,7.3-.86v6.52c-15.84,2.09-33.88,3.81-54.12,5.17l-.96-7.01,11.15-.74c-1.93-4.31-3.86-8.12-5.92-11.44l7.02-1.97c2.2,4.06,4.27,8.37,5.92,12.92l6.34-.49v-16.36h-20.66v-6.52h20.66v-7.26h-13.36v-4.8c-3.03,1.35-5.92,2.71-8.95,4.06l-4.27-5.29c11.29-4.67,21.48-9.97,30.85-16.12h3.99Zm-28.64-26.21l-4.96-6.77c24.79-4.68,43.79-10.83,57.29-18.21h6.61c11.15,6.89,30.3,12.92,57.29,18.21l-4.96,6.77c-8.68-1.85-16.53-3.69-23.41-5.66v3.69h-27.4v6.52h39.8v6.4h-11.29l-3.58,7.87h24.1v6.64h-107.83v-6.64h23.82l-3.44-7.87h-12.67v-6.4h41.45v-6.52h-27.96v-3.57c-7.16,2.09-14.87,3.94-22.86,5.54Zm55.64-18.95c-7.44,4.06-15.56,7.63-24.65,10.83h49.02c-9.92-3.32-18.04-6.89-24.37-10.83Zm-4.82,37.77v-7.87h-19.83l3.44,7.87h16.39Zm36.36,7.26c9.09,6.52,19.42,12.3,30.85,17.47l-4.41,6.28c-3.03-1.6-5.78-3.08-8.4-4.55v3.69h-15.15v7.63h20.93v6.52h-20.93v14.89h7.44c2.07-3.94,3.58-7.87,4.54-12.06l7.71.98c-1.1,3.94-2.75,7.63-4.82,11.07h10.74v6.89h-60.32v-6.89h11.71c-1.93-3.57-3.86-6.77-5.92-9.72l7.16-2.09c2.34,3.69,4.41,7.63,6.2,11.81h6.75v-14.89h-21.9v-6.52h21.9v-7.63h-15.01v-3.44c-3.58,1.97-7.16,4.06-10.88,6.15l-4.55-6.15c11.98-5.66,22.86-12.06,32.5-19.44h3.86Zm-10.88-7.26l3.58-7.87h-19.42v7.87h15.84Zm24.65,23.99c-6.06-3.57-11.29-7.01-15.7-10.46-4.41,3.44-9.36,7.01-14.74,10.46h30.43Z"/>
    <path class="cls-2" d="m321.76,62.72v8.49h-70.92v5.41c-.14,7.5-.55,14.52-1.38,21.04h59.35c-.27,32.48-1.79,52.04-4.82,58.44-3.31,6.4-8.81,9.6-16.53,9.6-5.51,0-12.26-.25-19.97-.49l-2.48-8.49c8.13.25,14.74.49,19.97.61,5.78-.25,9.5-3.08,11.15-8.61,1.38-5.41,2.34-19.81,2.62-42.94h-50.4c-1.93,11.32-4.82,21.16-8.95,29.41-7.16,13.66-18.87,24.24-34.84,31.74l-5.51-7.75c15.7-7.63,26.58-17.96,32.77-30.76,5.78-13.29,8.81-30.51,9.23-51.8v-5.41h-39.94v-8.49h120.64Z"/>
    <path class="cls-2" d="m361.84,104.8l-6.47,5.78c-4.68-5.54-11.02-11.44-19.14-17.72l6.75-5.66c7.44,5.91,13.77,11.69,18.87,17.59Zm1.65,18.46c-5.23,15.01-11.15,29.16-17.49,42.45l-9.09-3.44c6.89-13.66,12.94-27.68,18.18-41.96l8.4,2.95Zm1.1-49.95l-6.47,5.91c-4.68-5.17-11.29-10.7-19.69-16.49l6.75-5.78c7.71,5.41,14.18,10.95,19.42,16.36Zm32.78,3.2v39c-.28,14.03-2.75,25.22-7.44,33.59-4.54,7.63-11.98,13.78-22.17,18.21l-5.23-7.38c9.92-4.18,16.8-9.72,20.66-16.61,3.58-7.14,5.65-16.36,5.92-27.81v-39h8.26Zm18.87,58.94h-8.81v-67.42h-28.51v68.16h-8.81V60.38h46.13v75.05Zm6.33,25.84l-6.61,5.91c-4.96-6.52-11.71-13.41-20.52-20.79l6.06-5.17c8.4,6.64,15.42,13.41,21.07,20.06Zm13.22-96.09v76.78h-8.67v-76.78h8.67Zm-4.96,101.01l-2.07-8.24c4.82.37,9.5.61,13.91.61,3.17,0,4.82-1.72,4.82-4.92V55.09h9.36v100.64c0,6.89-3.72,10.46-10.88,10.46h-15.15Z"/>
  </g>
  <g>
    <path class="cls-1" d="m187.58,175.67l7.24,11.52,7.28-11.52h3.79l-9.23,14.21,9.94,15.38h-3.79l-7.99-12.68-7.95,12.68h-3.79l9.86-15.38-9.15-14.21h3.79Z"/>
    <path class="cls-1" d="m210.43,175.67l5.89,24.82h.15l6.11-24.82h3.34l6.08,24.82h.15l5.89-24.82h3.45l-7.69,29.59h-3.41l-6.08-24.66h-.11l-6.11,24.66h-3.41l-7.69-29.59h3.45Z"/>
    <path class="cls-1" d="m264.26,175.67v2.94h-9.45v26.65h-3.04v-26.65h-9.45v-2.94h21.94Z"/>
    <path class="cls-1" d="m286.58,175.67v2.94h-15.9v9.9h15v2.94h-15v10.86h16.54v2.94h-19.62v-29.59h18.98Z"/>
    <path class="cls-1" d="m307.63,177.37c1.8,1.57,2.81,3.94,3.07,7.05h-3.04c-.34-2.16-1.09-3.73-2.25-4.77-1.2-1.08-2.89-1.57-5.06-1.57-1.99,0-3.52.33-4.65,1.08-1.27.83-1.91,2.07-1.91,3.77,0,1.49.75,2.69,2.29,3.61.68.41,2.33,1.04,4.91,1.87,3.52,1.16,5.85,2.11,6.98,2.86,2.21,1.49,3.34,3.56,3.34,6.26s-.94,4.64-2.81,6.13c-1.88,1.45-4.39,2.2-7.58,2.2s-5.63-.75-7.43-2.24c-2.1-1.78-3.26-4.48-3.49-8.12h3.04c.26,2.57,1.09,4.48,2.44,5.68,1.24,1.08,3.04,1.66,5.44,1.66,2.18,0,3.98-.46,5.33-1.37s2.02-2.16,2.02-3.73c0-1.87-.9-3.32-2.66-4.35-.75-.5-2.66-1.2-5.66-2.16-3.23-1.08-5.29-1.91-6.15-2.4-2.06-1.33-3.08-3.23-3.08-5.72s.98-4.6,2.96-6.01c1.76-1.33,4.05-1.99,6.83-1.99,3,0,5.4.75,7.13,2.28Z"/>
    <path class="cls-1" d="m335.09,175.67v2.94h-9.45v26.65h-3.04v-26.65h-9.45v-2.94h21.94Z"/>
  </g>
  <path class="cls-1" d="m119.78,47c28.13-26.85,94.82-58.49,115.28-42.83,20.46,15.66-15.34,47.94-20.14,52.1,3.2-5.43,9.27-20.14-.96-30.05-12.85-12.45-60.62,1.91-94.18,20.78Z"/>
  <path class="cls-1" d="m599.32,71.93h-23.79v-2.65c0-15.55-21.43-22.27-32.36-22.27-12.48,0-30.55,8.04-30.55,22.58v2.35h-22.25l-13.22,110.9h134.72l-12.55-110.9Zm-74.5-2.35c0-5.25,10.5-10.37,18.35-10.37,8.33,0,20.16,5.21,20.16,10.07v2.65h-38.5v-2.35Zm-12.2,14.55v17.74h12.2v-17.74h38.5v17.74h12.2v-17.74h12.9l7.05,62.34h-101.71l7.43-62.34h11.42Zm-21.73,86.5l1.43-11.96h104.54l1.35,11.96h-107.32Z"/>
  <path class="cls-2" d="m623.29,76.24h-22.87v-2.55c0-14.94-20.59-21.41-31.1-21.41-12,0-29.36,7.73-29.36,21.7v2.26h-21.39l-12.71,106.59h129.49l-12.06-106.59Zm-71.6-2.26c0-5.04,10.1-9.97,17.63-9.97,8,0,19.37,5.01,19.37,9.68v2.55h-37.01v-2.26Zm-11.73,13.99v17.05h11.73v-17.05h37.01v17.05h11.73v-17.05h12.39l6.78,59.92h-97.75l7.15-59.92h10.98Zm-20.89,83.14l1.37-11.49h100.48l1.3,11.49h-103.15Z"/>
</svg>