<?xml version="1.0" encoding="UTF-8"?><svg xmlns="http://www.w3.org/2000/svg" viewBox="0 0 678.48 122.42"><defs><style>.f{fill:#fff;}.g{fill:#c5181f;}.h{fill:#b91c22;}.i{fill:#184b94;}</style></defs><g id="a"/><g id="b"><g id="c"><g id="d"><g id="e"><rect class="f" x="1.57" y="1.57" width="119.23" height="119.27"/><path class="g" d="M122.42,122.42H0V0H122.42V122.42ZM3.14,119.27H119.23V3.14H3.14V119.27Z"/><rect class="f" x="130.86" y="1.57" width="546.18" height="119.27"/><path class="i" d="M678.48,122.42H129.28V0H678.48V122.42Zm-546.09-3.14H675.46V3.14H132.39V119.27Z"/><path class="g" d="M11.13,61.64c.23-27.42,22.64-49.46,50.06-49.23,27.42,.23,49.46,22.64,49.23,50.06-.23,27.17-22.26,49.12-49.43,49.23-27.42,.12-49.74-22.02-49.85-49.44,0-.21,0-.42,0-.62Z"/><path class="g" d="M60.98,111.91c-27.76,.02-50.28-22.46-50.31-50.22S33.14,11.4,60.9,11.38c27.76-.02,50.28,22.46,50.31,50.22v.04c0,27.74-22.48,50.24-50.22,50.27Zm0-99.7c-27.42,0-49.64,22.23-49.64,49.64s22.23,49.64,49.64,49.64,49.64-22.23,49.64-49.64c-.11-27.34-22.31-49.44-49.64-49.44v-.21Z"/><path class="f" d="M96.15,86.88H50.14l2.07-7.03c1.2-.21,1.82-.29,2.98-.58s2.11,0,2.15-.7c0-1.45,.21-1.37-2.07-2.81-4.14-2.69-5.87-4.72-9.76-7.69l-4.14,19.28-18.29-.46,14.56-52.87h14.23l-3.64,18.66,46.29-20.02v10.26l-32.19,15.02c-.79,.66-1.7,.87-2.4,1.94-.56,1.01-.26,2.29,.7,2.94l35.5,24.08Z"/><path class="h" d="M41.7,87.66l-19.15-.25,14.69-53.82h14.98l-3.56,18.41,46.5-19.98v11.13h-.25l-32.15,14.89-.87,.62c-.57,.27-1.05,.68-1.41,1.2-.74,1.12,.29,2.15,.62,2.44l36.53,24.82-47.99,.08,2.28-7.82h.25c.98-.11,1.95-.29,2.9-.54h.95c.3,.06,.61,.06,.91,0h0q0-.99-1.74-2.19h0c-2.08-1.39-4.07-2.91-5.96-4.55-.99-.87-2.07-1.78-3.35-2.77l-4.18,18.33Zm-18.12-1.03l17.5,.25,4.14-19.57,.5,.37c1.53,1.16,2.73,2.19,3.89,3.14,1.84,1.65,3.8,3.16,5.87,4.51h0c2.03,1.32,2.19,1.45,2.07,2.9v.37c0,.79-.91,.87-1.61,.91h-.83c-.89,.25-1.81,.43-2.73,.54l-1.86,6.33h44.18l-34.3-23.37c-1.14-.79-1.49-2.32-.79-3.52,.42-.61,.99-1.11,1.65-1.45l.83-.54h0l31.98-14.81v-9.6l-46.38,20.35,3.68-18.95h-13.45l-14.36,52.13Z"/><path class="i" d="M529.55,18.87l-9.52,17.75c-6.74-3.72-9.76-6.37-17.29-6.37-6.83,0-12.7,6.5-11.63,10.92,2.03,8.27,37.77,5.25,41.62,28.96,7.49,46.09-39.8,40.75-39.8,40.75-1.74,1.78-29.58-2.48-32.77-9.56,0,0,8.27-14.36,10.72-19.32,7.24,4.14,10.55,9.1,21.84,9.1,9.93,0,12.74-5.38,12.74-10.05,0-17.75-42.78-1.57-40.96-38.23,2.03-41.25,49.11-37.61,65.03-23.95Z"/><path class="i" d="M490.45,111.7c-3.05-.1-6.1-.44-9.1-.99-9.14-1.61-19.61-4.88-21.55-9.18h0v-.21s8.27-14.36,10.72-19.32v-.37l.33,.21c1.78,1.03,3.27,2.11,4.72,3.14,4.79,4.05,10.9,6.2,17.17,6.04,11.13,0,12.41-6.74,12.41-9.64,0-6.91-7.03-8.48-15.18-10.3-11.96-2.65-26.85-5.96-25.77-27.93,.91-18.91,11.05-27.1,19.36-30.66,15.64-6.66,36.49-2.15,46.13,6.25h.25l-9.72,18.49h-.37l-3.14-1.82c-4.06-2.92-8.94-4.5-13.94-4.51-3.71,.09-7.19,1.83-9.47,4.76-1.42,1.52-2.07,3.61-1.78,5.67,.7,2.9,6.16,4.43,12.41,6.25,11.25,3.23,26.68,7.61,29.17,22.92,2.19,13.53,0,24.04-6.91,31.11-5.78,5.49-13.21,8.91-21.14,9.72-4,.57-8.05,.69-12.08,.37-.82,.17-1.66,.17-2.48,0Zm-29.87-10.34c2.07,4.14,12.41,7.07,20.93,8.56,3.63,.97,7.41,1.21,11.13,.7h0s21.22,2.19,32.72-9.85c6.58-6.91,8.81-17.17,6.66-30.45-2.4-14.81-17.54-19.15-28.59-22.3-6.87-1.94-12.41-3.48-13.07-6.83-.34-2.3,.38-4.62,1.94-6.33,2.45-3.1,6.15-4.95,10.09-5.05,5.28-.07,10.45,1.57,14.73,4.67l2.77,1.57,8.98-17.13c-13.08-9.4-30-11.61-45.05-5.87-8.27,3.43-18,11.46-18.91,29.95-1.03,21.31,12.87,24.41,25.15,27.1,8.27,1.9,15.8,3.52,15.8,11.09,0,9.68-10.05,10.43-13.11,10.43-6.35,.15-12.54-2.01-17.42-6.08-1.32-.95-2.73-1.9-4.14-2.85-2.73,4.92-9.68,17.17-10.63,18.78v-.12Z"/><polygon class="i" points="238.38 110.92 238.13 10.47 265.48 10.47 265.43 111.04 238.38 110.92"/><path class="i" d="M265.85,111.45h-27.88v-.41l-.21-100.99h28.09V111.45Zm-27.1-.91h26.31V10.84h-26.52l.21,99.7Z"/><path class="i" d="M367.08,10.47h27.3l-.25,66.19c0,5.92,9.47,11.63,16.84,11.63,6.62,0,16.84-4.51,16.84-11.63l.25-66.19h28.09l.37,66.19c0,24.82-19.44,34.38-39.38,34.38h-12.74c-11.09,0-37.65-5.13-37.56-34.38l.25-66.19Z"/><path class="i" d="M417.14,111.45h-12.74c-3.02,0-18.7-.54-28.96-10.92-6.09-6.41-9.29-15.04-8.85-23.87V10.05h28.09V76.66c.06,2.09,.96,4.07,2.48,5.5,3.72,3.51,8.59,5.54,13.69,5.71,6.54,0,16.55-4.47,16.55-11.21l.25-66.61h28.96l.33,66.61c.43,8.84-2.79,17.47-8.89,23.87-8.45,7.58-19.56,11.51-30.9,10.92ZM367.5,10.84V76.66c-.45,8.62,2.68,17.05,8.65,23.29,10.14,10.18,25.53,10.72,28.5,10.72h12.74c11.13,.58,22.03-3.28,30.32-10.72,5.95-6.25,9.08-14.67,8.65-23.29l-.33-65.82h-27.35V76.66c-.43,3.95-3.01,7.35-6.7,8.81-3.36,1.99-7.18,3.09-11.09,3.19-5.29-.19-10.33-2.29-14.19-5.92-1.75-1.54-2.81-3.71-2.94-6.04V10.88l-26.27-.04Z"/><path class="i" d="M301.43,53.78l31.73-43.32h31.86l-36.41,50.06,44.14,50.31-35.17,.33c-.62,0-33.55-37.23-35.37-39.72v39.14h-26.39V10.47h25.61V53.78Z"/><path class="i" d="M337.59,111.7c-.95,0-30.08-33.34-35-39.01v38.47h-27.18V10.05h26.6V52.5l30.95-42.45h32.85l-.46,.62-36.24,49.64,44.51,50.89-36.03,.5Zm-35.58-41.37l.7,.87c1.78,2.19,33.1,37.81,35.21,39.55l34.17-.33-43.98-49.89v-.25l35.99-49.44h-30.74l-32.35,44.06V10.84h-24.82V110.13h25.82v-39.8Z"/><path class="i" d="M541.05,10.47h27.3V76.66c0,5.92,9.47,11.63,16.84,11.63,6.58,0,16.8-4.51,16.84-11.63l.25-66.19h28.09l.33,66.19c0,24.82-19.4,34.38-39.34,34.38h-12.74c-11.13,0-37.69-5.13-37.56-34.38V10.47Z"/><path class="i" d="M591.15,111.45h-12.74c-3.06,0-18.74-.54-28.96-10.92-6.1-6.41-9.32-15.03-8.89-23.87l.25-66.61h28.09v.41l-.25,66.19c.17,2.12,1.15,4.09,2.73,5.5,3.73,3.51,8.61,5.54,13.74,5.71,6.54,0,16.55-4.47,16.55-11.21l.25-66.61h28.96l.37,66.61c.43,8.84-2.79,17.47-8.89,23.87-8.53,7.64-19.76,11.57-31.19,10.92Zm-49.64-100.61l-.25,65.82c-.43,8.62,2.7,17.04,8.65,23.29,10.14,10.18,25.57,10.72,28.55,10.72h12.74c11.11,.58,22.01-3.27,30.28-10.72,5.96-6.25,9.1-14.67,8.69-23.29l-.37-65.82h-27.3l-.25,65.82c-.33,3.82-2.66,7.18-6.12,8.81-3.36,1.99-7.18,3.09-11.09,3.19-5.35-.15-10.45-2.26-14.36-5.92-1.73-1.55-2.79-3.72-2.94-6.04l.25-65.82-26.48-.04Z"/><polygon class="i" points="640.96 110.92 640.75 10.47 668.06 10.47 668.01 111.04 640.96 110.92"/><path class="i" d="M668.43,111.45h-27.88v-.41l-.21-100.86h28.09V111.45Zm-27.18-.91h26.31V10.84h-26.31V110.54Z"/><path class="i" d="M200.69,111.04l-34.01-39.59v39.14h-26.39V11.29h25.48l.12,42.49,31.73-43.32h31.86l-36.41,50.06,44.14,50.31-36.53,.21Z"/><path class="i" d="M200.52,111.45h0c-1.24-1.45-28.59-33.1-33.1-38.76v38.47h-27.55V10.96h26.31V52.5l31.28-42.45h32.81l-.46,.62-36.24,49.64,44.51,50.89h-.87l-36.7,.25Zm-34.21-41.12l.66,.87,33.92,39.43h35.45l-43.77-50.1,.21-.25L228.74,10.84h-30.9l-32.35,44.06V11.75h-24.82V110.21h25.65v-39.88Z"/></g></g></g></g></svg>